<?xml version="1.0" encoding="UTF-8" standalone="no"?>
<!-- Created with Inkscape (http://www.inkscape.org/) -->

<svg
   version="1.1"
   id="svg1"
   width="500"
   height="500"
   viewBox="0 0 500 500"
   sodipodi:docname="logo_inside.svg"
   inkscape:version="1.3 (1:1.3+202307231459+0e150ed6c4)"
   xmlns:inkscape="http://www.inkscape.org/namespaces/inkscape"
   xmlns:sodipodi="http://sodipodi.sourceforge.net/DTD/sodipodi-0.dtd"
   xmlns="http://www.w3.org/2000/svg"
   xmlns:svg="http://www.w3.org/2000/svg">
  <defs
     id="defs1">
    <inkscape:path-effect
       effect="mirror_symmetry"
       start_point="252.59951,0"
       end_point="252.59951,500"
       center_point="252.59951,250"
       id="path-effect16"
       is_visible="true"
       lpeversion="1.2"
       lpesatellites=""
       mode="vertical"
       discard_orig_path="false"
       fuse_paths="false"
       oposite_fuse="false"
       split_items="true"
       split_open="false"
       link_styles="false" />
    <inkscape:path-effect
       effect="mirror_symmetry"
       start_point="259.5,0"
       end_point="252.59951,500"
       center_point="256.04976,250"
       id="path-effect15"
       is_visible="true"
       lpeversion="1.2"
       lpesatellites=""
       mode="free"
       discard_orig_path="false"
       fuse_paths="false"
       oposite_fuse="false"
       split_items="true"
       split_open="false"
       link_styles="false" />
    <inkscape:path-effect
       effect="mirror_symmetry"
       start_point="254.92871,0.00027792236"
       end_point="254.92871,500.00028"
       center_point="254.92871,250.00028"
       id="path-effect14"
       is_visible="true"
       lpeversion="1.2"
       lpesatellites="#path14"
       mode="vertical"
       discard_orig_path="false"
       fuse_paths="true"
       oposite_fuse="false"
       split_items="true"
       split_open="false"
       link_styles="false" />
    <inkscape:path-effect
       effect="mirror_symmetry"
       start_point="252.59951,0"
       end_point="252.59951,500"
       center_point="252.59951,250"
       id="path-effect12"
       is_visible="true"
       lpeversion="1.2"
       lpesatellites=""
       mode="vertical"
       discard_orig_path="false"
       fuse_paths="false"
       oposite_fuse="false"
       split_items="false"
       split_open="false"
       link_styles="false" />
    <inkscape:path-effect
       effect="mirror_symmetry"
       start_point="252.59951,0"
       end_point="252.59951,500"
       center_point="252.59951,250"
       id="path-effect9"
       is_visible="true"
       lpeversion="1.2"
       lpesatellites="#path15"
       mode="vertical"
       discard_orig_path="false"
       fuse_paths="false"
       oposite_fuse="false"
       split_items="true"
       split_open="false"
       link_styles="false" />
    <inkscape:path-effect
       effect="mirror_symmetry"
       start_point="250,0"
       end_point="250,500"
       center_point="250,250"
       id="path-effect7"
       is_visible="true"
       lpeversion="1.2"
       lpesatellites="#path8"
       mode="vertical"
       discard_orig_path="false"
       fuse_paths="false"
       oposite_fuse="false"
       split_items="true"
       split_open="false"
       link_styles="false" />
    <inkscape:path-effect
       effect="mirror_symmetry"
       start_point="250,0"
       end_point="250,500"
       center_point="250,250"
       id="path-effect5"
       is_visible="true"
       lpeversion="1.2"
       lpesatellites="#path7"
       mode="vertical"
       discard_orig_path="false"
       fuse_paths="false"
       oposite_fuse="false"
       split_items="true"
       split_open="false"
       link_styles="true" />
    <inkscape:path-effect
       effect="mirror_symmetry"
       start_point="253.19997,-77.76"
       end_point="253.19997,422.24"
       center_point="253.19997,172.24"
       id="path-effect1"
       is_visible="true"
       lpeversion="1.2"
       lpesatellites=""
       mode="vertical"
       discard_orig_path="false"
       fuse_paths="false"
       oposite_fuse="false"
       split_items="false"
       split_open="false"
       link_styles="false" />
    <inkscape:path-effect
       effect="offset"
       id="path-effect13"
       is_visible="true"
       lpeversion="1.2"
       linejoin_type="miter"
       unit="mm"
       offset="0"
       miter_limit="4"
       attempt_force_join="false"
       update_on_knot_move="true" />
    <inkscape:path-effect
       effect="mirror_symmetry"
       start_point="250,0"
       end_point="250,500"
       center_point="250,250"
       id="path-effect11"
       is_visible="false"
       lpeversion="1.2"
       lpesatellites=""
       mode="vertical"
       discard_orig_path="false"
       fuse_paths="false"
       oposite_fuse="false"
       split_items="false"
       split_open="false"
       link_styles="false" />
    <inkscape:path-effect
       effect="mirror_symmetry"
       start_point="254,0"
       end_point="254,500"
       center_point="254,250"
       id="path-effect10"
       is_visible="true"
       lpeversion="1.2"
       lpesatellites=""
       mode="free"
       discard_orig_path="false"
       fuse_paths="false"
       oposite_fuse="false"
       split_items="false"
       split_open="false"
       link_styles="false" />
    <inkscape:path-effect
       effect="mirror_symmetry"
       start_point="251.99956,0"
       end_point="251.99956,500"
       center_point="251.99956,250"
       id="path-effect8"
       is_visible="true"
       lpeversion="1.2"
       lpesatellites=""
       mode="vertical"
       discard_orig_path="false"
       fuse_paths="false"
       oposite_fuse="false"
       split_items="false"
       split_open="false"
       link_styles="false" />
    <inkscape:path-effect
       effect="mirror_symmetry"
       start_point="250,0"
       end_point="250,500"
       center_point="250,250"
       id="path-effect6"
       is_visible="true"
       lpeversion="1.2"
       lpesatellites=""
       mode="vertical"
       discard_orig_path="false"
       fuse_paths="false"
       oposite_fuse="false"
       split_items="false"
       split_open="false"
       link_styles="false" />
    <inkscape:path-effect
       effect="mirror_symmetry"
       start_point="251.99956,0"
       end_point="251.99956,500"
       center_point="251.99956,250"
       id="path-effect4"
       is_visible="true"
       lpeversion="1.2"
       lpesatellites=""
       mode="vertical"
       discard_orig_path="false"
       fuse_paths="false"
       oposite_fuse="false"
       split_items="false"
       split_open="false"
       link_styles="false" />
    <inkscape:path-effect
       effect="spiro"
       id="path-effect3"
       is_visible="true"
       lpeversion="1" />
    <inkscape:path-effect
       effect="bspline"
       id="path-effect2"
       is_visible="true"
       lpeversion="1.3"
       weight="33.333333"
       steps="2"
       helper_size="0"
       apply_no_weight="true"
       apply_with_weight="true"
       only_selected="false"
       uniform="false" />
  </defs>
  <sodipodi:namedview
     id="namedview1"
     pagecolor="#505050"
     bordercolor="#ffffff"
     borderopacity="1"
     inkscape:showpageshadow="0"
     inkscape:pageopacity="0"
     inkscape:pagecheckerboard="1"
     inkscape:deskcolor="#505050"
     showgrid="false"
     inkscape:zoom="2.8222268"
     inkscape:cx="248.03109"
     inkscape:cy="386.57418"
     inkscape:window-width="1848"
     inkscape:window-height="1016"
     inkscape:window-x="72"
     inkscape:window-y="27"
     inkscape:window-maximized="1"
     inkscape:current-layer="svg1" />
  <g
     id="g13"
     inkscape:label="sled"
     transform="translate(-3.1999721,77.76)"
     style="display:inline"
     inkscape:path-effect="#path-effect1">
    <path
       style="fill:none;stroke:#ffffff;stroke-width:4.6;stroke-linecap:round;stroke-linejoin:miter;stroke-dasharray:none;stroke-opacity:1"
       d="M 192.61,419.94 95.274,322.415 c -14.978809,-14.0323 1.71945,-46.58028 29.37705,-32.96246 M 313.78994,419.94 l 97.336,-97.525 c 14.97881,-14.0323 -1.71945,-46.58028 -29.37705,-32.96246"
       id="path10"
       sodipodi:nodetypes="ccc"
       inkscape:label="sled ski"
       inkscape:original-d="M 192.61,419.94 95.274,322.415 c -14.978809,-14.0323 1.71945,-46.58028 29.37705,-32.96246" />
    <path
       style="fill:#ffffff;stroke:#ffffff;stroke-width:7.2;stroke-linecap:round;stroke-linejoin:miter;stroke-dasharray:none;stroke-opacity:1"
       d="m 127.33445,323.27484 77.75491,77.45578 m 173.97613,-77.45578 -77.75491,77.45578"
       id="path11"
       sodipodi:nodetypes="cc"
       inkscape:label="sled base"
       inkscape:original-d="m 127.33445,323.27484 77.75491,77.45578" />
    <path
       style="display:inline;fill:#ffffff;stroke:#ffffff;stroke-width:3;stroke-linecap:butt;stroke-linejoin:miter;stroke-dasharray:none;stroke-opacity:1"
       d="M 122.05871,347.46465 145.167,342.996 m 40.68034,69.14939 4.87374,-24.95243 M 384.34123,347.46465 361.23294,342.996 m -40.68034,69.14939 -4.87374,-24.95243"
       id="path13"
       sodipodi:nodetypes="cccc"
       inkscape:label="supports"
       inkscape:original-d="M 122.05871,347.46465 145.167,342.996 m 40.68034,69.14939 4.87374,-24.95243" />
    <path
       id="path12-7-6-6-9-3"
       style="fill:#ffffff;stroke:#ffffff;stroke-width:0;stroke-linecap:round;stroke-linejoin:round;stroke-dasharray:none;stroke-opacity:1"
       d="m 195.415,387.06 h 5.33182 l 7.16345,7.16345 v 4.99898 z m -13.4,-13.4 h 5.33182 l 7.16345,7.16345 v 4.99898 z m -13.4,-13.4 h 5.33182 l 7.16345,7.16345 v 4.99898 z m -13.4,-13.4 h 5.33182 l 7.16345,7.16345 v 4.99898 z m -13.4,-13.4 h 5.33182 l 7.16345,7.16345 v 4.99898 z m -13.4,-13.4 h 5.33182 l 7.16345,7.16345 v 4.99898 z m 182.56994,67 h -5.33182 l -7.16345,7.16345 v 4.99898 z m 13.4,-13.4 h -5.33182 l -7.16345,7.16345 v 4.99898 z m 13.4,-13.4 h -5.33182 l -7.16345,7.16345 v 4.99898 z m 13.4,-13.4 h -5.33182 l -7.16345,7.16345 v 4.99898 z m 13.4,-13.4 h -5.33182 l -7.16345,7.16345 v 4.99898 z m 13.4,-13.4 h -5.33182 l -7.16345,7.16345 v 4.99898 z"
       inkscape:label="slats"
       inkscape:original-d="m 195.415,387.06 h 5.33182 l 7.16345,7.16345 v 4.99898 z m -13.4,-13.4 h 5.33182 l 7.16345,7.16345 v 4.99898 z m -13.4,-13.4 h 5.33182 l 7.16345,7.16345 v 4.99898 z m -13.4,-13.4 h 5.33182 l 7.16345,7.16345 v 4.99898 z m -13.4,-13.4 h 5.33182 l 7.16345,7.16345 v 4.99898 z m -13.4,-13.4 h 5.33182 l 7.16345,7.16345 v 4.99898 z" />
  </g>
  <path
     id="path16"
     style="display:inline;fill:#ffffff"
     inkscape:label="head"
     d="m 136.13867,206.06305 c -0.24594,-0.0247 -0.48696,-0.0145 -0.72461,0.0312 -0.63372,0.12208 -1.24288,0.49276 -1.84765,1.09961 -2.39027,2.39847 -1.7343,9.53409 1.78515,19.4336 4.91055,13.81226 14.02049,27.44513 26.2168,39.23242 2.61797,2.53018 4.75977,4.89269 4.75976,5.25 l -27.91406,3.74414 c -8.27717,1.25508 -12.84193,0.48155 -21.13672,-3.58398 -3.67428,-1.80091 -6.9102,-3.04575 -7.18945,-2.76563 -0.81555,0.81805 2.30264,7.51743 4.69531,10.08789 2.87116,3.08447 6.95202,5.16797 10.1211,5.16797 1.39802,0 2.54297,0.40143 2.54297,0.89258 0,1.27107 -2.6041,2.10742 -6.5625,2.10742 -2.13551,0 -3.40821,0.48623 -3.40821,1.30273 0,2.03031 5.86045,9.5242 7.97461,10.19727 1.04299,0.33205 4.75864,-0.54582 8.25586,-1.94922 7.133,-2.8624 7.69727,-2.97472 7.69727,-1.52734 0,0.56354 -2.0189,2.24918 -4.48633,3.74414 -2.46744,1.49495 -4.48633,3.22118 -4.48633,3.83789 0,0.6167 1.76388,2.34897 3.91992,3.84765 4.49338,3.12346 6.17407,2.90024 11.05274,-1.46874 1.83272,-1.64127 4.37249,-2.98438 5.64453,-2.98438 2.71146,0 3.09103,1.61735 0.56836,2.42188 -0.95956,0.30599 -3.44145,2.02734 -5.51563,3.82617 l -3.77148,3.27148 4.47656,4.40625 c 6.07032,5.97584 8.18644,4.7902 16.03125,-0.6289 5.39267,-3.72519 11.82888,-8.10399 16.02539,-4.74805 1.92944,1.54295 1.38989,4.07478 0.40234,9.67773 -0.81288,4.61015 -1.05019,12.22824 -0.80664,16.88282 0.41463,7.92393 1.23875,13.44376 6.64649,24.17773 3.17653,6.30519 5.21056,9.76123 7.85742,14.17383 2.64686,4.41256 10.88084,14.00357 13.70313,19.82617 12.3881,25.55783 0.10106,36.19213 15.48437,41.99023 2.94166,1.10874 11.25715,0.9624 18.24609,-0.91601 6.98898,-1.87842 8.21806,-1.87842 15.20704,0 6.98894,1.87841 15.30443,2.02475 18.24609,0.91601 15.38331,-5.7981 3.09627,-16.4324 15.48437,-41.99023 2.82229,-5.8226 11.05627,-15.41361 13.70313,-19.82617 2.64686,-4.4126 4.68089,-7.86864 7.85742,-14.17383 5.40774,-10.73397 6.23186,-16.2538 6.64649,-24.17773 0.24355,-4.65458 0.006,-12.27267 -0.80664,-16.88282 -0.98754,-5.60295 -1.5271,-8.13478 0.40234,-9.67773 4.19651,-3.35594 10.63272,1.02286 16.02539,4.74805 7.84481,5.4191 9.96093,6.60474 16.03125,0.6289 l 4.47656,-4.40625 -3.77148,-3.27148 c -2.07418,-1.79883 -4.55607,-3.52018 -5.51563,-3.82617 -2.52267,-0.80453 -2.1431,-2.42188 0.56836,-2.42188 1.27204,0 3.81181,1.34311 5.64453,2.98438 4.87867,4.36898 6.55936,4.5922 11.05274,1.46874 2.15604,-1.49868 3.91992,-3.23095 3.91992,-3.84765 0,-0.61671 -2.01889,-2.34294 -4.48633,-3.83789 -2.46743,-1.49496 -4.48633,-3.1806 -4.48633,-3.74414 0,-1.44738 0.56427,-1.33506 7.69727,1.52734 3.49722,1.4034 7.21287,2.28127 8.25586,1.94922 2.11416,-0.67307 7.97461,-8.16696 7.97461,-10.19727 0,-0.8165 -1.2727,-1.30273 -3.40821,-1.30273 -3.9584,0 -6.5625,-0.83635 -6.5625,-2.10742 0,-0.49115 1.14495,-0.89258 2.54297,-0.89258 3.16908,0 7.24994,-2.0835 10.1211,-5.16797 2.39267,-2.57046 5.51086,-9.26984 4.69531,-10.08789 -0.27925,-0.28012 -3.51517,0.96472 -7.18945,2.76563 -8.29479,4.06553 -12.85955,4.83906 -21.13672,3.58398 l -27.91406,-3.74414 c 0,-0.35731 2.14179,-2.71982 4.75976,-5.25 12.19631,-11.78729 21.30625,-25.42016 26.2168,-39.23242 3.51945,-9.89951 4.17542,-17.03513 1.78515,-19.4336 -2.41908,-2.42737 -4.89284,-1.0726 -8.83398,4.83594 -9.55765,14.32887 -34.63109,34.4484 -49.88086,40.02735 l -7.49219,2.74023 -5.95703,-5.79492 c -5.08758,-4.94815 -14.50883,-9.60329 -27.72656,-12.32813 -13.21774,-2.7248 -19.8682,-2.7248 -33.08594,0 -13.21773,2.72484 -22.63898,7.37998 -27.72656,12.32813 -1.98596,1.93151 -5.95703,5.79492 -5.95703,5.79492 l -7.49219,-2.74023 c -15.24977,-5.57895 -40.32321,-25.69848 -49.88086,-40.02735 -2.58637,-3.87747 -4.54012,-5.79356 -6.26172,-5.9668 z m 63.70508,101.20899 17.4043,12.53906 c -0.46896,0.61534 -0.86144,1.23055 -1.18164,1.8418 -0.32021,0.61125 -0.56882,1.21929 -0.75196,1.8164 -0.18313,0.59712 -0.29968,1.18294 -0.35742,1.75586 -0.0577,0.57293 -0.056,1.13319 0,1.67188 0.056,0.53869 0.16622,1.05637 0.32422,1.55078 0.158,0.49441 0.36298,0.96422 0.61133,1.4043 0.24835,0.44007 0.54017,0.85086 0.86719,1.22656 0.32701,0.3757 0.68998,0.71631 1.08398,1.01758 0.394,0.30127 0.81827,0.5625 1.26758,0.77929 0.44931,0.2168 0.92308,0.38945 1.41601,0.51172 0.49294,0.12228 1.00442,0.19519 1.5293,0.21289 0.52488,0.0177 1.06423,-0.0203 1.60938,-0.11718 0.54514,-0.0969 1.09666,-0.25303 1.65039,-0.47461 0.55373,-0.22159 1.10952,-0.50894 1.66015,-0.86524 0.55063,-0.3563 1.09696,-0.78214 1.63282,-1.2832 0.53583,-0.50106 1.06091,-1.07655 1.57031,-1.73242 l 7.80078,5.62109 c -2.92801,2.51606 -6.37601,3.6388 -9.99414,3.70508 -1.20605,0.0221 -2.43122,-0.0733 -3.66211,-0.27344 -1.23089,-0.20012 -2.46746,-0.50501 -3.69727,-0.90234 -1.2298,-0.39734 -2.45345,-0.88747 -3.65625,-1.45703 -1.20279,-0.56956 -2.38528,-1.21876 -3.53515,-1.93555 -1.14987,-0.71679 -2.26688,-1.50082 -3.33789,-2.33984 -1.07102,-0.83903 -2.09626,-1.73366 -3.0625,-2.66993 -0.96625,-0.93624 -1.87344,-1.91335 -2.70899,-2.92187 v -0.002 c -0.83516,-1.00815 -1.59868,-2.04621 -2.27734,-3.10157 -0.67893,-1.05577 -1.27314,-2.12899 -1.76953,-3.20703 -0.4964,-1.07803 -0.89567,-2.16102 -1.1836,-3.23633 -0.28793,-1.07528 -0.46403,-2.14382 -0.51758,-3.1914 -0.10707,-2.09516 0.27965,-4.10906 1.26563,-5.94336 z m 100.3125,0 c 0.98598,1.8343 1.3727,3.8482 1.26563,5.94336 -0.0535,1.04758 -0.22965,2.11612 -0.51758,3.1914 -0.28793,1.07531 -0.6872,2.1583 -1.1836,3.23633 -0.49639,1.07804 -1.0906,2.15126 -1.76953,3.20703 -0.67866,1.05536 -1.44218,2.09342 -2.27734,3.10157 v 0.002 c -0.83555,1.00852 -1.74274,1.98563 -2.70899,2.92187 -0.96624,0.93627 -1.99148,1.8309 -3.0625,2.66993 -1.07101,0.83902 -2.18802,1.62305 -3.33789,2.33984 -1.14987,0.71679 -2.33236,1.36599 -3.53515,1.93555 -1.2028,0.56956 -2.42645,1.05969 -3.65625,1.45703 -1.22981,0.39733 -2.46638,0.70222 -3.69727,0.90234 -1.23089,0.20012 -2.45606,0.29553 -3.66211,0.27344 -3.61813,-0.0663 -7.06614,-1.18903 -9.99414,-3.70508 l 7.80078,-5.62109 c 0.5094,0.65587 1.03448,1.23136 1.57031,1.73242 0.53586,0.50106 1.08219,0.9269 1.63282,1.2832 0.55063,0.3563 1.10642,0.64365 1.66015,0.86524 0.55373,0.22158 1.10525,0.37769 1.65039,0.47461 0.54515,0.0969 1.0845,0.13489 1.60938,0.11718 0.52488,-0.0177 1.03636,-0.0906 1.5293,-0.21289 0.49293,-0.12227 0.9667,-0.29492 1.41601,-0.51172 0.44931,-0.21679 0.87358,-0.47802 1.26758,-0.77929 0.394,-0.30127 0.75697,-0.64188 1.08398,-1.01758 0.32702,-0.3757 0.61884,-0.78649 0.86719,-1.22656 0.24835,-0.44008 0.45333,-0.90989 0.61133,-1.4043 0.158,-0.49441 0.26825,-1.01209 0.32422,-1.55078 0.056,-0.53869 0.0577,-1.09895 0,-1.67188 -0.0577,-0.57292 -0.17429,-1.15874 -0.35742,-1.75586 -0.18314,-0.59711 -0.43175,-1.20515 -0.75196,-1.8164 -0.3202,-0.61125 -0.71268,-1.22646 -1.18164,-1.8418 z m -30.24023,75.80273 c 0.74426,-0.0206 1.48712,0.0533 2.20703,0.2168 0.71991,0.16352 1.41709,0.41699 2.06836,0.75391 0.65126,0.33691 1.25658,0.75825 1.79492,1.25781 0.53834,0.49956 1.0095,1.07705 1.39062,1.72851 0.41398,0.64365 0.69867,1.32583 0.89258,2.03125 0.19392,0.70544 0.29796,1.43423 0.3457,2.17383 0.0955,1.47921 -0.0284,2.99904 -0.0742,4.44922 -0.12614,1.30854 -0.22217,2.62959 -0.26563,3.95313 -0.0435,1.32352 -0.0335,2.64964 0.0469,3.96875 0.0803,1.31909 0.23131,2.63054 0.47656,3.92578 0.24524,1.29524 0.58388,2.57422 1.03515,3.82617 0.29457,0.6826 0.56392,1.37972 0.80079,2.08789 0.23686,0.70817 0.44063,1.42652 0.60156,2.1543 0.16092,0.72777 0.27896,1.46562 0.3457,2.20703 0.0667,0.74141 0.0828,1.48726 0.0371,2.23633 0.003,0.71737 -0.059,1.43271 -0.18164,2.13672 -0.1226,0.70399 -0.30627,1.39601 -0.54688,2.06835 -0.24059,0.67236 -0.53915,1.32487 -0.89062,1.94727 -0.35147,0.6224 -0.75577,1.21538 -1.21094,1.76953 -0.41234,0.55384 -0.88359,1.05314 -1.40039,1.49805 -0.5168,0.44491 -1.07835,0.83465 -1.67383,1.16797 -0.59547,0.33332 -1.22468,0.61102 -1.87304,0.83007 -0.64837,0.21907 -1.31671,0.38028 -1.99219,0.48243 -0.67261,0.15144 -1.35076,0.21947 -2.02734,0.21484 -0.67659,-0.005 -1.35131,-0.0821 -2.01563,-0.21875 -0.66432,-0.13664 -1.31929,-0.33352 -1.95508,-0.57812 -0.63579,-0.24461 -1.25273,-0.53673 -1.84375,-0.86524 -0.6089,-0.38454 -1.2446,-0.71143 -1.90039,-0.99023 -0.65579,-0.2788 -1.33192,-0.50949 -2.01953,-0.70313 -0.68761,-0.19364 -1.38742,-0.34946 -2.0918,-0.47851 -0.70437,-0.12906 -1.41307,-0.23136 -2.11914,-0.31641 -1.29124,-0.14401 -2.59126,-0.25571 -3.89453,-0.32227 -1.30326,-0.0666 -2.61041,-0.0874 -3.91406,-0.0527 -1.30365,0.0346 -2.60409,0.1256 -3.89648,0.28516 -1.29241,0.15955 -2.57618,0.38709 -3.84571,0.69531 -0.40523,0.0704 -0.79731,0.17656 -1.17969,0.30859 -0.38237,0.13203 -0.75433,0.29071 -1.11914,0.4668 -0.72961,0.35218 -1.43009,0.77418 -2.12109,1.19726 -0.6511,0.40536 -1.34263,0.73128 -2.06055,0.97852 -0.71791,0.24724 -1.46286,0.41669 -2.21679,0.50977 -0.75393,0.0931 -1.5182,0.10988 -2.27735,0.0527 -0.75914,-0.0572 -1.51253,-0.18915 -2.24609,-0.39258 -0.67257,-0.15354 -1.32572,-0.37675 -1.94922,-0.66015 -0.6235,-0.2834 -1.21661,-0.62767 -1.77344,-1.02539 -0.55682,-0.39773 -1.07628,-0.84724 -1.54883,-1.34375 -0.47254,-0.49652 -0.89887,-1.03937 -1.26953,-1.61915 -0.34433,-0.49486 -0.64834,-1.01445 -0.91211,-1.55273 -0.26376,-0.53828 -0.48814,-1.09546 -0.66992,-1.66601 -0.18177,-0.57057 -0.32156,-1.15437 -0.41992,-1.7461 -0.0984,-0.59173 -0.15444,-1.19119 -0.16797,-1.79297 -0.0345,-0.63812 -0.0377,-1.27816 -0.008,-1.91601 0.0299,-0.63785 0.0929,-1.27437 0.1914,-1.9043 0.0985,-0.62993 0.2328,-1.25282 0.4043,-1.86719 0.1715,-0.61437 0.38018,-1.21938 0.62891,-1.81054 0.42497,-1.01149 0.77982,-2.04714 1.07031,-3.09961 0.29049,-1.05248 0.51709,-2.1218 0.68555,-3.20118 0.16846,-1.07936 0.27902,-2.16953 0.33789,-3.26171 0.0589,-1.0922 0.0656,-2.18641 0.0273,-3.27735 -0.0494,-1.38761 -0.15724,-2.77212 -0.24609,-4.1582 -0.0889,-1.38608 -0.15871,-2.77375 -0.12891,-4.16406 0.004,-0.72477 0.0926,-1.4541 0.26367,-2.16407 0.17111,-0.70997 0.42418,-1.40152 0.75782,-2.04687 0.33363,-0.64535 0.74842,-1.24447 1.24023,-1.77539 0.49181,-0.53092 1.06141,-0.99271 1.70703,-1.35938 0.35546,-0.22265 0.72254,-0.41309 1.09961,-0.57226 0.37707,-0.15918 0.76499,-0.28806 1.1582,-0.38867 0.78644,-0.20124 1.59966,-0.28862 2.41797,-0.28516 0.81832,0.003 1.64071,0.0988 2.44727,0.26758 0.80656,0.16878 1.5965,0.41034 2.34766,0.70508 1.37828,0.5721 2.78896,1.05552 4.19531,1.55078 0.86549,0.30479 1.7298,0.61197 2.58203,0.95312 0.87388,0.37826 1.772,0.70664 2.6875,0.97656 0.9155,0.26993 1.84753,0.48146 2.78906,0.62696 0.94154,0.14549 1.89372,0.2255 2.8457,0.23047 0.952,0.005 1.90468,-0.0652 2.85157,-0.2168 0.72971,-0.0845 1.44248,-0.23014 2.14453,-0.41602 0.70205,-0.18587 1.39421,-0.41185 2.08008,-0.65625 1.37171,-0.48878 2.72174,-1.05186 4.09765,-1.51757 1.45653,-0.46739 2.8844,-1.09354 4.33985,-1.60352 0.72772,-0.25499 1.46229,-0.48045 2.21093,-0.64258 0.74865,-0.16212 1.51123,-0.26147 2.29493,-0.26172 z M 229.75,387.08063 c -0.66919,0.0254 -1.28945,0.15295 -1.8418,0.38672 -0.27617,0.11689 -0.53622,0.26183 -0.77539,0.43164 -0.23916,0.16982 -0.45928,0.3646 -0.65625,0.58789 -0.19696,0.2233 -0.36997,0.47463 -0.51953,0.75196 -0.14956,0.27733 -0.27413,0.58214 -0.37109,0.91406 -0.097,0.33192 -0.16786,0.69106 -0.20703,1.07812 -0.0392,0.38706 -0.0473,0.80139 -0.0234,1.24414 0.0701,1.30404 0.0203,2.59316 0.15039,3.89258 0.14742,1.47265 0.22601,2.84783 0.24805,4.13086 0.022,1.28303 -0.013,2.47361 -0.0879,3.57617 -0.0749,1.10256 -0.19051,2.11759 -0.33399,3.04883 -0.14347,0.93124 -0.31444,1.77977 -0.49805,2.54883 -0.36721,1.53813 -0.78534,2.76077 -1.14257,3.70508 -0.35724,0.94431 -0.65351,1.60953 -0.77344,2.0332 -0.32195,1.13733 -0.48499,2.09762 -0.53516,3.06641 -0.0502,0.96878 0.0126,1.94606 0.14453,3.11523 0.0631,0.55847 0.24341,1.15197 0.50196,1.73828 0.25854,0.58632 0.59543,1.16489 0.97461,1.69531 0.37917,0.53044 0.79967,1.01349 1.22461,1.4043 0.42494,0.39081 0.85416,0.68997 1.25,0.85742 0.51105,0.21621 0.9918,0.38816 1.44726,0.52149 0.45547,0.13333 0.88494,0.22762 1.29297,0.28711 0.40803,0.0595 0.79531,0.0854 1.16406,0.0801 0.36875,-0.005 0.71902,-0.0405 1.05664,-0.10157 0.67525,-0.12211 1.2968,-0.34779 1.89649,-0.63867 0.59969,-0.29088 1.17819,-0.64784 1.76758,-1.03516 0.37619,-0.24092 0.79671,-0.46508 1.25781,-0.67382 0.46109,-0.20874 0.96329,-0.40115 1.49805,-0.57813 1.06949,-0.35395 2.27363,-0.64554 3.57031,-0.875 1.29667,-0.22946 2.68523,-0.39744 4.11914,-0.50586 1.43391,-0.10841 2.91332,-0.15762 4.39453,-0.14843 1.4812,0.009 2.96378,0.0759 4.40234,0.19921 1.43857,0.12334 2.83464,0.30306 4.14063,0.53711 1.30599,0.23406 2.522,0.52392 3.60547,0.86524 1.08347,0.34132 2.03368,0.73455 2.80468,1.17968 0.62575,0.36128 1.22162,0.7062 1.82813,0.99219 0.60651,0.286 1.22448,0.51396 1.89062,0.64258 0.33308,0.0643 0.67824,0.10371 1.04102,0.11328 0.36278,0.01 0.74218,-0.011 1.14453,-0.0664 0.40235,-0.0554 0.82753,-0.14667 1.2793,-0.27735 0.45177,-0.13068 0.93035,-0.30137 1.4414,-0.51758 0.39584,-0.16745 0.82506,-0.46661 1.25,-0.85742 0.42494,-0.39081 0.84544,-0.87386 1.22461,-1.4043 0.37918,-0.53042 0.71607,-1.10899 0.97461,-1.69531 0.25855,-0.58631 0.43891,-1.17981 0.50196,-1.73828 0.13198,-1.16917 0.19469,-2.14645 0.14453,-3.11523 -0.0502,-0.96879 -0.21321,-1.92908 -0.53516,-3.06641 -0.11993,-0.42367 -0.4162,-1.08889 -0.77344,-2.0332 -0.35723,-0.94431 -0.77536,-2.16695 -1.14257,-3.70508 -0.18361,-0.76906 -0.35458,-1.61759 -0.49805,-2.54883 -0.14348,-0.93124 -0.25906,-1.94627 -0.33399,-3.04883 -0.0749,-1.10256 -0.10992,-2.29314 -0.0879,-3.57617 0.022,-1.28303 0.10063,-2.65821 0.24805,-4.13086 0.13004,-1.29942 0.0803,-2.58854 0.15039,-3.89258 0.0339,-0.6297 0.001,-1.20347 -0.0898,-1.7207 -0.0913,-0.51723 -0.24183,-0.97841 -0.44336,-1.38476 -0.20153,-0.40637 -0.45318,-0.75758 -0.75,-1.05469 -0.29682,-0.29712 -0.63846,-0.53904 -1.01563,-0.72852 -0.37716,-0.18947 -0.78985,-0.32671 -1.23242,-0.41015 -0.44257,-0.0835 -0.91517,-0.11278 -1.4082,-0.0918 -0.49304,0.021 -1.0066,0.093 -1.53516,0.2168 -0.52855,0.12379 -1.07196,0.29844 -1.62109,0.52343 -1.38404,0.56709 -2.74221,1.03901 -4.06055,1.5 -1.31834,0.461 -2.59686,0.91107 -3.82031,1.4336 -0.58833,0.25127 -1.81469,0.65812 -3.36328,1.0039 -0.7743,0.1729 -1.62979,0.33019 -2.52539,0.44532 -0.89561,0.11512 -1.83179,0.1883 -2.76953,0.1914 -0.93776,0.003 -1.87187,-0.064 -2.76563,-0.17578 -0.89376,-0.11179 -1.74769,-0.26871 -2.52148,-0.44141 -1.54759,-0.3454 -2.77874,-0.75824 -3.39063,-1.02343 -1.19717,-0.51886 -2.47587,-0.96778 -3.80078,-1.42969 -1.32491,-0.46191 -2.69604,-0.93682 -4.08008,-1.50391 -0.54913,-0.22499 -1.09257,-0.39937 -1.62109,-0.52343 -0.52852,-0.12407 -1.04212,-0.19783 -1.53516,-0.21875 -0.18489,-0.008 -0.36647,-0.009 -0.54492,-0.002 z m 4.89453,6.63086 c 0.54636,-0.0151 1.09844,0.025 1.63867,0.11719 0.54024,0.0922 1.06859,0.23622 1.57032,0.42578 0.50172,0.18956 0.9754,0.42612 1.40625,0.70313 0.43084,0.277 0.8189,0.5947 1.14648,0.94921 0.55093,0.59624 1.01082,1.27582 1.38867,2.02149 0.37785,0.74567 0.67307,1.55797 0.89844,2.41797 0.22536,0.85999 0.38114,1.76782 0.47461,2.70703 0.0935,0.93921 0.12525,1.90925 0.10742,2.89258 -0.0248,1.37166 -0.16455,2.60915 -0.39844,3.72656 -0.23388,1.11741 -0.56172,2.11386 -0.96093,3.00195 -0.39922,0.8881 -0.86978,1.66784 -1.39063,2.35156 -0.52085,0.68373 -1.09262,1.27306 -1.69141,1.77735 -0.59878,0.50429 -1.22439,0.92363 -1.85742,1.27344 -0.63302,0.3498 -1.27292,0.62935 -1.89648,0.84961 -0.62357,0.22025 -1.23233,0.3824 -1.80274,0.49804 -0.5704,0.11564 -1.10262,0.18473 -1.57617,0.22071 -0.3416,0.026 -0.64273,0.011 -0.90625,-0.0352 -0.26351,-0.0461 -0.49028,-0.12387 -0.67969,-0.22461 -0.1894,-0.10074 -0.34166,-0.22344 -0.46093,-0.36133 -0.11927,-0.13788 -0.2047,-0.28969 -0.25782,-0.44726 -0.0531,-0.15758 -0.0735,-0.32068 -0.0644,-0.48047 0.009,-0.1598 0.048,-0.31639 0.11524,-0.46094 0.0673,-0.14455 0.16171,-0.27682 0.2832,-0.38867 0.12149,-0.11185 0.26967,-0.20395 0.44141,-0.26563 1.03461,-0.488 1.96988,-1.02724 2.81054,-1.60547 0.84066,-0.57822 1.58702,-1.1951 2.24219,-1.83984 0.65517,-0.64474 1.21911,-1.31635 1.69727,-2.00391 0.47815,-0.68755 0.87007,-1.39098 1.17968,-2.09765 0.30961,-0.70667 0.53797,-1.41705 0.6875,-2.11914 0.14953,-0.70209 0.22083,-1.39651 0.21875,-2.07031 -0.002,-0.67381 -0.0774,-1.3274 -0.22265,-1.94922 -0.14522,-0.62183 -0.36074,-1.21167 -0.64063,-1.75782 -0.19291,-0.37641 -0.43257,-0.75327 -0.70508,-1.10156 -0.27251,-0.34829 -0.57732,-0.66705 -0.90234,-0.92773 -0.32503,-0.26069 -0.67104,-0.46453 -1.02149,-0.57813 -0.35044,-0.11359 -0.7059,-0.1379 -1.05468,-0.0449 -0.29151,0.0777 -0.57148,0.26336 -0.82227,0.52148 -0.25078,0.25813 -0.47242,0.58845 -0.64648,0.95704 -0.17406,0.36858 -0.29999,0.77452 -0.36133,1.18359 -0.0613,0.40907 -0.0581,0.82157 0.0293,1.20117 0.13318,0.57863 0.3784,1.0023 0.58593,1.41602 0.10377,0.20685 0.19718,0.41137 0.26368,0.63086 0.0665,0.21948 0.10568,0.45463 0.0976,0.72265 -0.008,0.28315 -0.0462,0.53578 -0.10742,0.75781 -0.0612,0.22204 -0.14553,0.41363 -0.24805,0.57813 -0.20504,0.329 -0.48191,0.54574 -0.7832,0.66602 -0.30129,0.12027 -0.62788,0.14386 -0.93359,0.084 -0.30572,-0.0599 -0.59029,-0.20262 -0.8086,-0.41406 -0.11427,-0.11068 -0.33191,-0.29143 -0.5957,-0.5625 -0.26379,-0.27107 -0.57286,-0.63289 -0.87109,-1.10157 -0.29824,-0.46867 -0.58514,-1.04454 -0.80274,-1.74804 -0.1088,-0.35175 -0.20051,-0.73491 -0.26758,-1.15235 -0.0671,-0.41743 -0.11014,-0.86964 -0.12109,-1.35742 -0.0102,-0.45398 0.013,-0.88967 0.0664,-1.30469 0.0534,-0.41501 0.13731,-0.80884 0.24414,-1.18359 0.21366,-0.7495 0.52433,-1.41729 0.89062,-1.99805 0.36629,-0.58075 0.78711,-1.07485 1.22461,-1.47656 0.4375,-0.40171 0.89107,-0.71145 1.31836,-0.92383 0.43149,-0.21446 0.89123,-0.3759 1.36719,-0.48632 0.47596,-0.11043 0.96815,-0.16985 1.46484,-0.1836 z m 30.71094,0 c 0.49669,0.0138 0.98888,0.0732 1.46484,0.1836 0.47596,0.11042 0.9357,0.27186 1.36719,0.48632 0.42729,0.21238 0.88086,0.52212 1.31836,0.92383 0.4375,0.40171 0.85832,0.89581 1.22461,1.47656 0.36629,0.58076 0.67696,1.24855 0.89062,1.99805 0.10684,0.37475 0.19073,0.76858 0.24414,1.18359 0.0534,0.41502 0.0766,0.85071 0.0664,1.30469 -0.011,0.48778 -0.054,0.93999 -0.12109,1.35742 -0.0671,0.41744 -0.15878,0.8006 -0.26758,1.15235 -0.2176,0.7035 -0.5045,1.27937 -0.80274,1.74804 -0.29823,0.46868 -0.6073,0.8305 -0.87109,1.10157 -0.26379,0.27107 -0.48143,0.45182 -0.5957,0.5625 -0.21831,0.21144 -0.50288,0.35418 -0.8086,0.41406 -0.30571,0.0599 -0.6323,0.0363 -0.93359,-0.084 -0.30129,-0.12028 -0.57816,-0.33702 -0.7832,-0.66602 -0.10252,-0.1645 -0.18681,-0.35609 -0.24805,-0.57813 -0.0612,-0.22203 -0.099,-0.47466 -0.10742,-0.75781 -0.008,-0.26802 0.0312,-0.50317 0.0976,-0.72265 0.0665,-0.21949 0.15991,-0.42401 0.26368,-0.63086 0.20753,-0.41372 0.45275,-0.83739 0.58593,-1.41602 0.0874,-0.3796 0.0906,-0.7921 0.0293,-1.20117 -0.0613,-0.40907 -0.18727,-0.81501 -0.36133,-1.18359 -0.17406,-0.36859 -0.3957,-0.69891 -0.64648,-0.95704 -0.25079,-0.25812 -0.53076,-0.44377 -0.82227,-0.52148 -0.34878,-0.093 -0.70424,-0.0687 -1.05468,0.0449 -0.35045,0.1136 -0.69646,0.31744 -1.02149,0.57813 -0.32502,0.26068 -0.62983,0.57944 -0.90234,0.92773 -0.27251,0.34829 -0.51217,0.72515 -0.70508,1.10156 -0.27989,0.54615 -0.49541,1.13599 -0.64063,1.75782 -0.14521,0.62182 -0.22058,1.27541 -0.22265,1.94922 -0.002,0.6738 0.0692,1.36822 0.21875,2.07031 0.14953,0.70209 0.37789,1.41247 0.6875,2.11914 0.30961,0.70667 0.70153,1.4101 1.17968,2.09765 0.47816,0.68756 1.0421,1.35917 1.69727,2.00391 0.65517,0.64474 1.40153,1.26162 2.24219,1.83984 0.84065,0.57823 1.77594,1.11747 2.81054,1.60547 0.17174,0.0617 0.31992,0.15378 0.44141,0.26563 0.12149,0.11185 0.21594,0.24412 0.2832,0.38867 0.0673,0.14455 0.10617,0.30114 0.11524,0.46094 0.009,0.15979 -0.0113,0.32289 -0.0645,0.48047 -0.0531,0.15757 -0.13855,0.30938 -0.25782,0.44726 -0.11927,0.13789 -0.27153,0.26059 -0.46093,0.36133 -0.18941,0.10074 -0.41618,0.17848 -0.67969,0.22461 -0.26352,0.0461 -0.56465,0.0611 -0.90625,0.0352 -0.47355,-0.036 -1.00577,-0.10507 -1.57617,-0.22071 -0.57041,-0.11564 -1.17917,-0.27779 -1.80274,-0.49804 -0.62356,-0.22026 -1.26346,-0.49981 -1.89648,-0.84961 -0.63303,-0.34981 -1.25864,-0.76915 -1.85742,-1.27344 -0.59879,-0.50429 -1.17056,-1.09362 -1.69141,-1.77735 -0.52085,-0.68372 -0.99141,-1.46346 -1.39063,-2.35156 -0.39921,-0.88809 -0.72705,-1.88454 -0.96093,-3.00195 -0.23389,-1.11741 -0.37359,-2.3549 -0.39844,-3.72656 -0.0178,-0.98333 0.014,-1.95337 0.10742,-2.89258 0.0935,-0.93921 0.24925,-1.84704 0.47461,-2.70703 0.22537,-0.86 0.52059,-1.6723 0.89844,-2.41797 0.37785,-0.74567 0.83774,-1.42525 1.38867,-2.02149 0.32758,-0.35451 0.71564,-0.67221 1.14648,-0.94921 0.43085,-0.27701 0.90453,-0.51356 1.40625,-0.70313 0.50173,-0.18956 1.03008,-0.33359 1.57032,-0.42578 0.54023,-0.0922 1.09231,-0.13231 1.63867,-0.11719 z M 252.98849,150.66392 c -0.0504,-10e-4 -19.06643,24.63068 -20.36948,26.38516 -0.0478,0.0643 -3.45782,-1.51674 -7.57701,-3.51303 -4.11915,-1.99629 -7.58883,-3.66362 -7.71098,-3.7061 l -0.22188,-0.078 -2.93474,5.24743 -2.93479,5.24742 -3.98639,3.55888 -3.98551,3.55889 -3.14688,6.39217 c -1.73047,3.5158 -3.29828,6.70341 -3.48409,7.08398 -0.18582,0.38058 -0.31794,0.69184 -0.29375,0.69184 0.0243,0 1.55217,-0.77063 3.39536,-1.71269 1.84318,-0.94204 3.44451,-1.74537 3.55863,-1.78506 0.13426,-0.0467 0.8402,0.54746 1.99763,1.68048 0.9844,0.96363 1.84581,1.77141 1.91424,1.79554 0.15781,0.0557 9.88821,-2.21872 10.08401,-2.35703 0.0799,-0.0565 0.43635,-0.8673 0.7916,-1.80118 l 0.64606,-1.69738 3.09894,-0.98223 c 1.91584,-0.60716 3.12349,-1.0579 3.16373,-1.18013 0.11719,-0.35575 0.80582,-3.74219 0.80582,-3.96272 0,-0.13084 -1.2113,-0.98191 -3.09008,-2.17121 -3.67016,-2.32331 -3.02246,-1.55474 -4.3955,-5.21928 l -1.14216,-3.04726 0.49431,-1.8438 c 0.58515,-2.18419 0.27353,-2.01934 3.32082,-1.75932 1.35593,0.11576 2.56792,0.21077 2.69338,0.21077 0.15197,0 0.80989,1.0452 1.97015,3.1301 l 1.74203,3.13012 2.56295,1.83575 2.56382,1.83576 0.97442,1.7891 0.9744,1.78829 3.4699,0.52771 3.47081,0.52693 0.30172,1.01601 0.30084,1.01523 4.8481,3.42293 4.84721,3.42213 0.4597,-0.0612 c 0.25264,-0.0334 3.65593,-0.38096 7.5628,-0.77228 3.90684,-0.3913 7.12804,-0.73456 7.159,-0.76261 0.031,-0.0281 -1.08922,-0.81692 -2.48929,-1.7529 -1.84128,-1.23095 -2.52128,-1.75662 -2.4582,-1.90092 0.0479,-0.10966 0.32065,-0.76172 0.60611,-1.44882 l 0.51916,-1.24931 -0.77385,-5.27478 c -0.42586,-2.90119 -0.78664,-5.2912 -0.80137,-5.31098 -0.0154,-0.0198 -0.47235,0.1453 -1.01698,0.36683 -1.21889,0.49572 -0.91852,0.89037 -2.74931,-3.61117 l -1.54859,-3.80826 -0.98507,-5.02219 -0.98506,-5.02299 -1.58941,-1.20989 c -0.87444,-0.66514 -1.59031,-1.25791 -1.59031,-1.31769 0,-0.40049 1.89375,-4.26242 2.06154,-4.20405 0.13791,0.048 4.64137,3.1603 6.12868,4.23542 0.0263,0.019 0.92642,2.39735 2.00031,5.28524 1.07387,2.88788 2.2487,6.02349 2.61085,6.96816 l 0.65848,1.71748 5.86687,4.67467 c 3.2269,2.57112 5.84281,4.71229 5.81276,4.75831 -0.03,0.046 -1.91851,1.23241 -4.19671,2.63619 -4.90619,3.0231 -4.67262,2.4941 -1.65242,3.75275 l 2.49549,1.04017 1.80862,1.93309 1.80771,1.9323 1.40303,0.0845 c 0.77145,0.0462 1.53261,0.0958 1.69149,0.11023 l 0.28841,0.0258 0.46856,1.56544 c 0.25766,0.86086 0.49281,1.58744 0.52271,1.61455 0.0977,0.0886 8.5913,2.41659 8.64369,2.3691 0.028,-0.0254 -0.92461,-1.07057 -2.11653,-2.32244 l -2.16715,-2.27661 -0.0878,-1.12702 c -0.0482,-0.62018 -0.0741,-1.14002 -0.0567,-1.15441 0.0173,-0.0143 2.06022,0.32166 4.53927,0.74654 2.47905,0.42489 4.6049,0.77502 4.72385,0.77791 0.11901,0.003 -0.75896,-0.88007 -1.95059,-1.96206 l -2.16625,-1.96767 0.31681,-1.75613 c 0.17449,-0.96586 0.31857,-1.87498 0.31949,-2.01997 9.2e-4,-0.16793 -0.69216,-0.86247 -1.91067,-1.91379 l -1.91334,-1.64993 0.83421,-1.51317 c 0.45882,-0.83211 0.85677,-1.53462 0.88389,-1.56145 0.0272,-0.0268 0.6906,0.28929 1.47404,0.7023 l 1.42436,0.75056 2.43069,3.19848 2.4316,3.19851 2.87088,1.56947 c 1.57921,0.86295 3.20068,1.74441 3.60302,1.95883 l 0.73125,0.38936 -2.39609,-2.2613 -2.39698,-2.26131 -4.10088,-7.22237 c -2.38563,-4.20156 -4.1747,-7.20659 -4.27658,-7.18373 -0.0962,0.0215 -3.46746,1.31199 -7.49092,2.86705 -4.02346,1.55506 -7.40019,2.82684 -7.50422,2.82684 -0.10406,0 -1.73819,-1.40846 -3.63141,-3.13012 l -3.44241,-3.13009 -3.75652,-7.71067 -3.75746,-7.70984 -1.09509,-0.48026 -1.09599,-0.47946 -2.82652,-3.50337 c -1.55487,-1.92683 -2.86017,-3.50397 -2.90015,-3.505 z" />
</svg>
